<svg xmlns="http://www.w3.org/2000/svg" width="40.1" height="42.9" version="1.1" viewBox="0 0 40.1 42.9"><metadata/><g><g><g><path d="m13.7 80.3c1.53-10.9 2.79-20.3 2.81-21 .0942-3.01 4.01-5.25 9.29-5.32 4.57-.0589 4.95-.21 2.96-1.17-1.75-.843-2.18-1.71-1.81-3.68.263-1.42.763-4.74 1.11-7.39.528-4 1.17-5.13 3.81-6.75 2.8-1.71 5.11-1.94 19.3-1.94 21.4-.005 21.1-.211 19.4 13.6-1.93 15.7-1.01 14.4-10.2 14.4-7.1 0-7.91-.188-7.46-1.75.272-.962.798-4.14 1.17-7.05l.673-5.3-11.7.606-1.13 6.93c-1.22 7.49-3.55 10.6-7.97 10.6-1.86 0-2.46.668-2.91 3.25-.622 3.59-4.53 30.6-4.53 31.3 0 .245-3.52.445-7.81.445h-7.81z" class="fill" transform="translate(-3.74 -21.2) matrix(.665 0 0 .64 -3.36 -.174) matrix(.944 0 0 .962 2.59 3.76)"/><path d="m32.4 65.6-2.51-12.2 7 5.89 3.86.466-1.38 2.72-2.3 2.25-1.69.594z" class="fill" transform="translate(-3.74 -21.2) matrix(.665 0 0 .64 -3.36 -.174) matrix(.944 0 0 .962 2.59 3.76)"/></g></g></g></svg>